<?xml version="1.0" encoding="UTF-8"?>
<svg id="Layer_2" xmlns="http://www.w3.org/2000/svg" viewBox="0 0 369.5 355.25">
  <defs>
    <style>
      .cls-1 {
        fill: #fff;
      }

      .cls-2 {
        fill: #da3832;
      }
    </style>
  </defs>
  <g id="Layer_1-2" data-name="Layer_1">
    <g id="Layer_2-2" data-name="Layer_2">
      <rect class="cls-2" y="33.25" width="369.5" height="322" rx="38.5" ry="38.5"/>
      <path class="cls-1" d="M4.5,133.25h360.5v183.5c0,21.25-17.25,38.5-38.5,38.5H43c-21.25,0-38.5-17.25-38.5-38.5v-183.5h0Z"/>
      <circle class="cls-1" cx="187" cy="90.25" r="32"/>
      <circle class="cls-1" cx="296.5" cy="90.25" r="32"/>
      <circle class="cls-1" cx="77.5" cy="93.75" r="32"/>
      <circle class="cls-2" cx="59.62" cy="247" r="23.75"/>
      <ellipse class="cls-2" cx="59.62" cy="307.5" rx="23.88" ry="23.25"/>
      <ellipse class="cls-2" cx="140.38" cy="247" rx="23.88" ry="23.25"/>
      <ellipse class="cls-2" cx="140.38" cy="307.5" rx="23.88" ry="23.25"/>
      <ellipse class="cls-2" cx="140.38" cy="186.5" rx="23.88" ry="23.25"/>
      <ellipse class="cls-2" cx="219" cy="186.5" rx="23.88" ry="23.25"/>
      <ellipse class="cls-2" cx="219" cy="244.25" rx="23.88" ry="23.25"/>
      <ellipse class="cls-2" cx="219" cy="307.5" rx="23.88" ry="23.25"/>
      <ellipse class="cls-2" cx="308" cy="186.5" rx="23.88" ry="23.25"/>
      <ellipse class="cls-2" cx="308" cy="247" rx="23.88" ry="23.25"/>
      <ellipse class="cls-2" cx="308" cy="307.5" rx="23.88" ry="23.25"/>
      <rect class="cls-2" x="67.5" y=".75" width="22" height="99.5" rx="11" ry="11"/>
      <rect class="cls-2" x="176.5" y="0" width="22" height="99.5" rx="11" ry="11"/>
      <rect class="cls-2" x="285" y=".5" width="22" height="99.5" rx="11" ry="11"/>
    </g>
  </g>
</svg>