<?xml version="1.0" encoding="UTF-8"?>
<svg id="Layer_2" xmlns="http://www.w3.org/2000/svg" viewBox="0 0 43.57 57.94">
  <defs>
    <style>
      .cls-1 {
        fill: #fff;
      }

      .cls-2 {
        fill: #a71e22;
      }
    </style>
  </defs>
  <g id="_x31_">
    <path class="cls-2" d="M21.7,57.94c2.17.03,3.99-1.65,9.56-9.67,5.92-8.52,8.96-12.74,10.18-16.3,1.07-3.1,3.58-10.73.98-18.31-.36-1.05-1.15-3.29-3.05-5.76-2.68-3.48-5.86-5.22-6.63-5.62C25.75-1.38,18.35.37,16.73.75c-1.85.44-9.02,2.36-13.42,8.55-6.03,8.51-2.35,18.78-.49,23.96.82,2.29,4.17,7.11,10.86,16.76,4.08,5.87,5.71,7.88,8.01,7.91Z"/>
    <circle class="cls-1" cx="21.79" cy="22.01" r="11.81"/>
  </g>
</svg>